<svg width="52" height="52" viewBox="0 0 52 52" fill="none" xmlns="http://www.w3.org/2000/svg">
<g filter="url(#filter0_i_198_269)">
<path d="M38.3 27.2C36.0453 27.2 33.8412 27.8685 31.9665 29.1212C30.0918 30.3738 28.6306 32.1543 27.7678 34.2374C26.9049 36.3204 26.6792 38.6126 27.119 40.824C27.5589 43.0354 28.6447 45.0667 30.239 46.661C31.8333 48.2553 33.8646 49.341 36.076 49.7809C38.2874 50.2208 40.5795 49.995 42.6626 49.1322C44.7457 48.2693 46.5261 46.8082 47.7788 44.9335C49.0314 43.0587 49.7 40.8547 49.7 38.5999C49.6842 35.5813 48.4781 32.6909 46.3436 30.5564C44.2091 28.4218 41.3186 27.2157 38.3 27.2V27.2ZM40.3 39.5999C39.9899 39.5923 39.6842 39.5244 39.4 39.4L35.1 43.7C34.8589 43.9387 34.5388 44.0809 34.2 44.0999C34.0282 44.1166 33.8551 44.0885 33.6973 44.0184C33.5396 43.9483 33.4027 43.8386 33.3 43.7C33.0589 43.4424 32.9247 43.1028 32.9247 42.75C32.9247 42.3971 33.0589 42.0575 33.3 41.7999L37.6 37.5C37.4861 37.2124 37.4186 36.9086 37.4 36.5999C37.3544 36.1231 37.408 35.6421 37.5574 35.187C37.7068 34.7319 37.9489 34.3127 38.2682 33.9557C38.5876 33.5988 38.9774 33.3118 39.4132 33.1129C39.8489 32.914 40.3211 32.8074 40.8 32.7999C41.1101 32.8076 41.4158 32.8755 41.7 33C41.9 33 41.9 33.1999 41.8 33.2999L39.8 35.2C39.7537 35.2233 39.7148 35.259 39.6877 35.3032C39.6605 35.3473 39.6461 35.3981 39.6461 35.45C39.6461 35.5018 39.6605 35.5526 39.6877 35.5967C39.7148 35.6409 39.7537 35.6766 39.8 35.7L41.1 37C41.1355 37.0456 41.181 37.0826 41.233 37.1081C41.285 37.1335 41.3421 37.1467 41.4 37.1467C41.4579 37.1467 41.515 37.1335 41.567 37.1081C41.619 37.0826 41.6645 37.0456 41.7 37L43.6 35.0999C43.7 34.9999 44 35 44 35.2C44.1038 35.4905 44.171 35.7928 44.2 36.0999C44.1925 36.592 44.0833 37.0771 43.8793 37.5249C43.6754 37.9727 43.3811 38.3736 43.0149 38.7022C42.6486 39.0309 42.2184 39.2803 41.7512 39.4348C41.284 39.5893 40.79 39.6455 40.3 39.5999Z" fill="#DD9C03"/>
<path d="M21.7 27.8C28.8245 27.8 34.6 22.0245 34.6 14.9C34.6 7.77553 28.8245 2 21.7 2C14.5755 2 8.8 7.77553 8.8 14.9C8.8 22.0245 14.5755 27.8 21.7 27.8Z" fill="#DD9C03"/>
<path d="M25.2 49.8C27.4 49.8 26.2 48.3 26.2 48.3C23.9921 45.5499 22.7922 42.1268 22.8 38.6C22.7894 36.3896 23.2675 34.2041 24.2 32.2C24.242 32.0856 24.3105 31.9828 24.4 31.9C25.1 30.5 23.7 30.4 23.7 30.4C23.0703 30.3169 22.435 30.2834 21.8 30.3C17.0919 30.3184 12.5462 32.0232 8.98704 35.1053C5.42792 38.1874 3.09101 42.4428 2.4 47.1C2.4 48.1 2.7 49.9 5.8 49.9H24.9C25.1 49.8 25.1 49.8 25.2 49.8Z" fill="#DD9C03"/>
</g>
<defs>
<filter id="filter0_i_198_269" x="0" y="0" width="52" height="56" filterUnits="userSpaceOnUse" color-interpolation-filters="sRGB">
<feFlood flood-opacity="0" result="BackgroundImageFix"/>
<feBlend mode="normal" in="SourceGraphic" in2="BackgroundImageFix" result="shape"/>
<feColorMatrix in="SourceAlpha" type="matrix" values="0 0 0 0 0 0 0 0 0 0 0 0 0 0 0 0 0 0 127 0" result="hardAlpha"/>
<feOffset dy="4"/>
<feGaussianBlur stdDeviation="2"/>
<feComposite in2="hardAlpha" operator="arithmetic" k2="-1" k3="1"/>
<feColorMatrix type="matrix" values="0 0 0 0 0 0 0 0 0 0 0 0 0 0 0 0 0 0 0.25 0"/>
<feBlend mode="normal" in2="shape" result="effect1_innerShadow_198_269"/>
</filter>
</defs>
</svg>
