<svg width="24" height="24" viewBox="0 0 24 24" fill="none" xmlns="http://www.w3.org/2000/svg">
<path d="M19.5951 6.19209H17.625V4.33519C17.625 4.32638 17.6805 4.3187 17.6805 4.3097C17.6805 3.30927 16.8313 2.50098 15.8074 2.6322C15.636 1.86983 14.9717 1.31666 14.1705 1.31666C13.7756 1.31666 13.4031 1.45481 13.1025 1.70319C12.6064 0.673889 11.5556 0 10.4004 0C9.33338 0 8.34788 0.574539 7.81275 1.48612C7.38994 1.02836 6.79294 0.762178 6.1635 0.762178C5.44406 0.762178 4.76775 1.11234 4.34756 1.6895C4.04869 1.44769 3.68081 1.31685 3.29006 1.31685C2.50087 1.31685 1.77206 1.86871 1.59675 2.62489C0.7305 2.69705 0 3.42493 0 4.3097V21.7468C0 22.9874 1.10419 24 2.34506 24H15.4757C16.7164 24 17.625 22.9874 17.625 21.7468V20.4384H19.5951C22.0761 20.4384 24 18.4171 24 15.9362V10.7003C24 8.21957 22.0761 6.19209 19.5951 6.19209ZM2.49994 16.082C2.44125 16.2208 2.30419 16.3119 2.15344 16.3119C1.94644 16.3119 1.77769 16.1433 1.77769 15.936C1.77769 15.7291 1.94644 15.5604 2.15344 15.5604C2.36063 15.5604 2.52938 15.7291 2.52938 15.936C2.52938 15.9861 2.51944 16.0357 2.49994 16.082ZM2.54644 14.6179C2.23781 14.6179 1.98769 14.3678 1.98769 14.0592C1.98769 13.7507 2.23781 13.5006 2.54644 13.5006C2.85506 13.5006 3.10519 13.7509 3.10519 14.0592C3.10538 14.3678 2.85506 14.6179 2.54644 14.6179ZM3.44625 11.9521C3.38756 12.091 3.2505 12.1823 3.09975 12.1823C2.89275 12.1823 2.724 12.0136 2.724 11.8063C2.724 11.5993 2.89256 11.4306 3.09975 11.4306C3.30694 11.4306 3.47569 11.5993 3.47569 11.8063C3.47569 11.8563 3.46556 11.9058 3.44625 11.9521ZM5.25 9.99511V21.1845C5.25 21.4951 4.99819 21.7468 4.6875 21.7468C4.37681 21.7468 4.125 21.4951 4.125 21.1845V10.0695V7.87541C4.125 7.56499 4.37681 7.31305 4.6875 7.31305C4.99819 7.31305 5.25 7.56499 5.25 7.87541V9.99511ZM6.63263 16.0813C6.57413 16.2204 6.43725 16.3117 6.28613 16.3117C6.07913 16.3117 5.91019 16.1431 5.91019 15.9358C5.91019 15.7289 6.07913 15.5602 6.28613 15.5602C6.49331 15.5602 6.66188 15.7289 6.66188 15.9358C6.66188 15.9859 6.65213 16.0354 6.63263 16.0813ZM6.47925 12.9227C6.17063 12.9227 5.9205 12.6727 5.9205 12.3641C5.9205 12.0556 6.17081 11.8055 6.47925 11.8055C6.78788 11.8055 7.038 12.0556 7.038 12.3641C7.038 12.6727 6.78788 12.9227 6.47925 12.9227ZM7.95206 14.7815C7.89338 14.9202 7.75631 15.0113 7.60556 15.0113C7.39856 15.0113 7.22981 14.8428 7.22981 14.6355C7.22981 14.4285 7.39838 14.2598 7.60556 14.2598C7.81275 14.2598 7.9815 14.4285 7.9815 14.6355C7.9815 14.6857 7.97156 14.7352 7.95206 14.7815ZM9.375 10.3117V21.1847C9.375 21.4953 9.12319 21.747 8.8125 21.747C8.50181 21.747 8.25 21.4953 8.25 21.1847V9.96324V7.87541C8.25 7.56499 8.50181 7.31305 8.8125 7.31305C9.12319 7.31305 9.375 7.56499 9.375 7.87541V10.3117ZM10.0314 11.6254C10.0314 11.4184 10.2002 11.2495 10.4076 11.2495C10.6146 11.2495 10.7833 11.4182 10.7833 11.6254C10.7833 11.6777 10.7723 11.7296 10.7511 11.7774C10.6911 11.9131 10.5559 12.0012 10.4076 12.0012C10.2002 12.0012 10.0314 11.8325 10.0314 11.6254ZM11.1289 16.4673C11.0704 16.6062 10.9333 16.6974 10.7826 16.6974C10.5754 16.6974 10.4064 16.5289 10.4064 16.3218C10.4064 16.1147 10.5752 15.946 10.7826 15.946C10.9896 15.946 11.1583 16.1147 11.1583 16.3218C11.1583 16.3717 11.1482 16.4211 11.1289 16.4673ZM11.5179 15.1564C11.4593 15.2951 11.3222 15.3862 11.1714 15.3862C10.9644 15.3862 10.7957 15.2177 10.7957 15.0104C10.7957 14.8034 10.9643 14.6347 11.1714 14.6347C11.3786 14.6347 11.5474 14.8034 11.5474 15.0104C11.5474 15.0606 11.5373 15.1101 11.5179 15.1564ZM11.1707 13.8769C10.8621 13.8769 10.6119 13.6268 10.6119 13.3183C10.6119 13.0097 10.8621 12.7596 11.1707 12.7596C11.4793 12.7596 11.7294 13.0099 11.7294 13.3183C11.7296 13.6268 11.4793 13.8769 11.1707 13.8769ZM13.5 10.0975V21.1845C13.5 21.4951 13.2482 21.7468 12.9375 21.7468C12.6268 21.7468 12.375 21.4951 12.375 21.1845V10.2665V7.87541C12.375 7.56499 12.6268 7.31305 12.9375 7.31305C13.2482 7.31305 13.5 7.56499 13.5 7.87541V10.0975ZM14.8796 15.8938C14.8213 16.0329 14.6843 16.1242 14.5331 16.1242C14.3261 16.1242 14.1574 15.9557 14.1574 15.7484C14.1574 15.5414 14.3259 15.3727 14.5331 15.3727C14.7403 15.3727 14.9089 15.5414 14.9089 15.7484C14.9091 15.7984 14.8991 15.8479 14.8796 15.8938ZM14.5463 12.1834C14.5463 11.8749 14.7966 11.6246 15.105 11.6246C15.4136 11.6246 15.6638 11.8749 15.6638 12.1834C15.6638 12.492 15.4136 12.7418 15.105 12.7418C14.7966 12.7418 14.5463 12.4918 14.5463 12.1834ZM16.0005 14.3989C15.9418 14.5376 15.8049 14.6287 15.6542 14.6287C15.4472 14.6287 15.2784 14.46 15.2784 14.2529C15.2784 14.0458 15.447 13.877 15.6542 13.877C15.8614 13.877 16.0301 14.0458 16.0301 14.2529C16.0301 14.3031 16.02 14.3526 16.0005 14.3989ZM16.5 10.1756C16.3125 10.2575 16.2058 10.3246 15.8762 10.3246C15.5186 10.3246 15.3763 10.2418 15.1823 10.1505C14.9773 10.0543 14.7701 9.94112 14.3293 9.94112C14.3286 9.94112 14.25 9.94112 14.25 9.94112V7.87541C14.25 7.15203 13.6611 6.56325 12.9375 6.56325C12.2138 6.56325 11.625 7.15203 11.625 7.87541V9.98667C11.4375 9.96418 11.4195 9.94975 11.2607 9.94975C10.8193 9.94975 10.5576 10.0587 10.3524 10.155C10.2863 10.1859 10.125 10.2152 10.125 10.2407V7.87541C10.125 7.15203 9.53606 6.56325 8.8125 6.56325C8.08875 6.56325 7.5 7.15203 7.5 7.87541V10.0109C7.3125 10.0508 7.28381 10.1044 7.17638 10.155C6.9825 10.2461 6.789 10.3246 6.43163 10.3246C6.26063 10.3246 6.1875 10.3061 6 10.2776V7.87541C6 7.15203 5.41106 6.56325 4.6875 6.56325C3.96375 6.56325 3.375 7.15203 3.375 7.87541V10.3173C3.375 10.3215 3.32175 10.3245 3.26156 10.3245C2.904 10.3245 2.7615 10.2459 2.56763 10.1548C2.36269 10.0585 2.09531 9.94956 1.65431 9.94956C1.4505 9.94975 1.3125 9.97355 1.125 10.008V5.25483H16.5V10.1756ZM21.75 15.9362C21.75 17.1768 20.8356 18.189 19.5951 18.189H17.625V8.44151H19.5951C20.8356 8.44151 21.75 9.45994 21.75 10.7003V15.9362Z" fill="#FB4949"/>
</svg>
