<svg width="30" height="30" viewBox="0 0 30 30" fill="none" xmlns="http://www.w3.org/2000/svg">
<path d="M14.4878 0C6.49924 0 0 6.729 0 15C0 23.271 6.49924 30 14.4878 30C22.4764 30 28.9757 23.271 28.9757 15C28.9757 13.311 28.6917 11.6913 28.1919 10.1748L25.8461 12.6035C25.9982 13.3775 26.0781 14.1795 26.0781 15C26.0781 21.6165 20.8784 27 14.4878 27C8.09725 27 2.89757 21.6165 2.89757 15C2.89757 8.3835 8.09725 3 14.4878 3C16.8537 3 19.0543 3.74084 20.8913 5.00684L22.9655 2.85938C20.5779 1.06837 17.6534 0 14.4878 0ZM27.9513 1.93945L13.039 17.3789L8.26825 12.4395L6.21958 14.5605L13.039 21.6211L30 4.06055L27.9513 1.93945Z" fill="#37970A"/>
</svg>
