<svg width="57" height="60" viewBox="0 0 57 60" fill="none" xmlns="http://www.w3.org/2000/svg">
<path d="M52.312 60H7.68785C6.52758 60 5.58691 59.0593 5.58691 57.8991V2.10094C5.58691 0.940664 6.52758 0 7.68785 0H40.8054C41.3627 0 41.897 0.221484 42.291 0.615469L53.7977 12.1223C54.1918 12.5163 54.4132 13.0508 54.4132 13.6078V57.8992C54.413 59.0593 53.4723 60 52.312 60Z" fill="#238CC5"/>
<path d="M53.7977 12.1221L42.2909 0.615469C41.897 0.221484 41.3625 0 40.8054 0H30.0001V60H52.3123C53.4725 60 54.4132 59.0593 54.4132 57.8991V13.6078C54.413 13.0506 54.1917 12.5161 53.7977 12.1221Z" fill="#2275AA"/>
<path d="M52.312 15.7086H40.8053C39.645 15.7086 38.7043 14.7679 38.7043 13.6076V2.10088C38.7043 1.25116 39.2161 0.484985 40.0013 0.159907C40.7862 -0.165054 41.6902 0.0143602 42.2909 0.615415L53.7976 12.1223C54.3984 12.7231 54.5782 13.6269 54.2531 14.4119C53.9278 15.1967 53.162 15.7086 52.312 15.7086Z" fill="#2264AA"/>
<path d="M41.1107 31.0999C41.1107 31.8434 40.5083 32.4467 39.764 32.4467H37.2213C37.0697 33.5322 36.7375 34.5494 36.2606 35.4553L37.857 37.0518C38.3831 37.5778 38.3831 38.43 37.857 38.9561C37.3327 39.4804 36.4786 39.4828 35.9517 38.9561L34.6229 37.6273C31.9318 40.1631 28.0712 40.1642 25.3771 37.6273L24.0483 38.9561C23.5235 39.4808 22.6703 39.4822 22.144 38.9561C21.6179 38.4299 21.6179 37.5778 22.144 37.0518L23.7403 35.4553C23.2636 34.5495 22.9314 33.5322 22.7796 32.4467H20.2361C19.4926 32.4467 18.8893 31.8433 18.8893 31.0999C18.8893 30.3557 19.4927 29.7531 20.2361 29.7531H22.7796C22.9313 28.6658 23.2645 27.6477 23.7411 26.7417L22.1458 25.1463C21.6197 24.6202 21.6197 23.7673 22.1458 23.2411C22.6719 22.7151 23.524 22.7151 24.05 23.2411L25.3788 24.5699C25.9193 24.0618 26.5235 23.6398 27.1754 23.3236C27.1754 23.3147 27.1746 23.3047 27.1746 23.2957C27.1746 21.7353 28.4397 20.4702 30.0001 20.4702C31.5606 20.4702 32.8256 21.7353 32.8256 23.2957C32.8256 23.3046 32.8247 23.3146 32.8247 23.3236C33.4765 23.6398 34.0807 24.0615 34.6213 24.5699L35.9501 23.2411C36.4761 22.7151 37.3291 22.7151 37.8553 23.2411C38.3806 23.7672 38.3806 24.6202 37.8553 25.1454L36.2599 26.7419C36.7366 27.6477 37.0698 28.6658 37.2215 29.7532H39.7641C40.5083 29.7531 41.1107 30.3557 41.1107 31.0999Z" fill="#FFE49C"/>
<path d="M39.7638 29.7531H37.2212C37.0696 28.6658 36.7363 27.6477 36.2597 26.7417L37.8551 25.1453C38.3803 24.6201 38.3803 23.767 37.8551 23.241C37.329 22.7149 36.476 22.7149 35.9498 23.241L34.6211 24.5698C34.0806 24.0617 33.4764 23.6397 32.8245 23.3235C32.8245 23.3146 32.8254 23.3046 32.8254 23.2956C32.8254 21.7351 31.5604 20.4701 30 20.4701V39.5291C31.6388 39.5292 33.277 38.895 34.623 37.6268L35.9518 38.9556C36.4786 39.4824 37.3327 39.4799 37.8571 38.9556C38.3832 38.4294 38.3832 37.5774 37.8571 37.0513L36.2607 35.4549C36.7375 34.549 37.0697 33.5317 37.2214 32.4462H39.7641C40.5083 32.4462 41.1108 31.8428 41.1108 31.0995C41.1107 30.3557 40.5083 29.7531 39.7638 29.7531Z" fill="#FFC72D"/>
</svg>
