<svg width="60" height="60" viewBox="0 0 60 60" fill="none" xmlns="http://www.w3.org/2000/svg">
<g clip-path="url(#clip0_194_52)">
<path d="M30 60C46.5685 60 60 46.5685 60 30C60 13.4315 46.5685 0 30 0C13.4315 0 0 13.4315 0 30C0 46.5685 13.4315 60 30 60Z" fill="#71E2EF"/>
<path d="M18.6862 46.9705L31.6686 59.9529C46.9083 59.1171 59.1171 46.9083 59.9529 31.6687L46.9705 18.6863L20.6398 19.697L18.6862 46.9705Z" fill="#38C6D9"/>
<path d="M50 34V26H45.496C45.1182 24.5321 44.5344 23.1479 43.7823 21.8747L46.9707 18.6863L41.3137 13.0295L38.1253 16.2179C36.8522 15.4657 35.468 14.8819 34.0001 14.5041V10H26V14.504C24.5321 14.8818 23.1479 15.4656 21.8748 16.2177L18.6864 13.0294L13.0296 18.6862L16.218 21.8746C15.4659 23.1477 14.8821 24.532 14.5043 25.9998H9.99995V33.9999H14.5039C14.8818 35.4678 15.4656 36.852 16.2177 38.1251L13.0293 41.3136L18.6862 46.9703L21.8747 43.7819C23.1478 44.534 24.532 45.1178 25.9999 45.4956V49.9998H34V45.4959C35.4678 45.118 36.8521 44.5342 38.1252 43.7821L41.3136 46.9705L46.9704 41.3138L43.7819 38.1254C44.5341 36.8522 45.1179 35.468 45.4957 34.0001H49.9999V34H50ZM30 36C26.6863 36 24 33.3137 24 30C24 26.6863 26.6863 24 30 24C33.3137 24 36 26.6863 36 30C36 33.3137 33.3137 36 30 36Z" fill="#366695"/>
<path d="M50 34V26H45.4961C45.1183 24.5321 44.5344 23.1479 43.7823 21.8747L46.9708 18.6863L41.314 13.0295L38.1253 16.218C36.8522 15.4659 35.468 14.882 34.0001 14.5042V10H29.9329V24.0016C29.9552 24.0013 29.9775 23.9999 30.0001 23.9999C33.3138 23.9999 36.0001 26.6862 36.0001 29.9999C36.0001 33.3136 33.3138 35.9999 30.0001 35.9999C29.9775 35.9999 29.9552 35.9985 29.9329 35.9983V49.9998H34.0001V45.4959C35.468 45.118 36.8522 44.5342 38.1253 43.7821L41.3138 46.9705L46.9705 41.3138L43.7821 38.1254C44.5342 36.8522 45.118 35.468 45.4958 34.0001H50V34Z" fill="#273B7A"/>
<path d="M30 39.6969C24.653 39.6969 20.3031 35.347 20.3031 30C20.3031 24.653 24.653 20.3031 30 20.3031C35.347 20.3031 39.6969 24.653 39.6969 30C39.6969 35.347 35.347 39.6969 30 39.6969ZM30 22.3233C25.7671 22.3233 22.3233 25.7671 22.3233 30C22.3233 34.2329 25.7671 37.6767 30 37.6767C34.2329 37.6767 37.6767 34.2329 37.6767 30C37.6767 25.7671 34.2329 22.3233 30 22.3233Z" fill="#FFC61B"/>
<path d="M30 20.3031C29.9774 20.3031 29.9554 20.3047 29.9327 20.3047V22.3249C29.9551 22.3247 29.9774 22.3233 30 22.3233C34.2329 22.3233 37.6767 25.7671 37.6767 30C37.6767 34.2329 34.2329 37.6767 30 37.6767C29.9774 37.6767 29.9551 37.6753 29.9327 37.6751V39.6953C29.9554 39.6955 29.9774 39.6969 30 39.6969C35.347 39.6969 39.6969 35.347 39.6969 30C39.6969 24.653 35.347 20.3031 30 20.3031Z" fill="#D48B07"/>
</g>
<defs>
<clipPath id="clip0_194_52">
<rect width="60" height="60" fill="white"/>
</clipPath>
</defs>
</svg>
