<svg width="60" height="60" viewBox="0 0 60 60" fill="none" xmlns="http://www.w3.org/2000/svg">
<g clip-path="url(#clip0_194_26)">
<path d="M30 60C46.5685 60 60 46.5685 60 30C60 13.4315 46.5685 0 30 0C13.4315 0 0 13.4315 0 30C0 46.5685 13.4315 60 30 60Z" fill="#84DBFF"/>
<path d="M16.4911 23.5604V47.8099C16.4911 48.4872 17.0376 49.0337 17.7149 49.0337H42.2733C42.9505 49.0337 43.497 48.4872 43.497 47.8099V23.5604H16.4911Z" fill="#FF7058"/>
<path d="M43.2119 12.0119L14.4832 17.2159C14.2337 17.2634 14.0673 17.501 14.1149 17.7386L14.8871 21.9802C14.9347 22.2297 15.1723 22.3961 15.4099 22.3485L44.1386 17.1446C44.3881 17.097 44.5545 16.8594 44.5069 16.6218L43.7347 12.3802C43.6871 12.1307 43.4614 11.9644 43.2119 12.0119Z" fill="#FF7058"/>
<path d="M32.804 11.0613L23.8931 12.6772C23.596 12.7247 23.4059 13.0099 23.4535 13.3069L23.8574 15.5168L33.8376 13.7108L33.4337 11.5009C33.3861 11.2039 33.101 11.0138 32.804 11.0613Z" fill="#324A5E"/>
<path d="M24.8792 28.4673H22.3248V44.1148H24.8792V28.4673Z" fill="#F1543F"/>
<path d="M31.2832 28.4673H28.7287V44.1148H31.2832V28.4673Z" fill="#F1543F"/>
<path d="M37.6871 28.4673H35.1327V44.1148H37.6871V28.4673Z" fill="#F1543F"/>
</g>
<defs>
<clipPath id="clip0_194_26">
<rect width="60" height="60" fill="white"/>
</clipPath>
</defs>
</svg>
